<svg width="64" height="64" viewBox="0 0 64 64" xmlns="http://www.w3.org/2000/svg">
  <g fill="#000c62">
    <!-- 중앙 -->
    <circle cx="32" cy="32" r="4"/>

    <!-- 잎 (아가베 로제트 형태) -->
    <path d="M32 8 L36 28 L32 24 L28 28 Z"/>
    <path d="M48 16 L38 30 L40 26 L44 28 Z"/>
    <path d="M56 32 L36 34 L40 32 L36 30 Z"/>
    <path d="M48 48 L34 36 L38 38 L36 42 Z"/>
    <path d="M32 56 L28 36 L32 40 L36 36 Z"/>
    <path d="M16 48 L30 36 L28 40 L26 36 Z"/>
    <path d="M8 32 L28 30 L24 32 L28 34 Z"/>
    <path d="M16 16 L30 28 L26 26 L28 30 Z"/>
  </g>
</svg>